<?xml version="1.0" encoding="UTF-8"?>
<svg width="28px" height="29px" viewBox="0 0 28 29" version="1.1" xmlns="http://www.w3.org/2000/svg" xmlns:xlink="http://www.w3.org/1999/xlink">
    <!-- Generator: Sketch 52.2 (67145) - http://www.bohemiancoding.com/sketch -->
    <title>Artboard</title>
    <desc>Created with Sketch.</desc>
    <g id="Artboard" stroke="none" stroke-width="1" fill="none" fill-rule="evenodd">
        <g id="Group" transform="translate(1.000000, 8.000000)" fill="#00A690">
            <polygon id="Path" points="0 1.62650602 0 1.62650602 11.3855422 1.62650602 11.3855422 1.30120482 0 1.30120482"></polygon>
            <polygon id="Path" points="0 0.325301205 0 0.325301205 11.3855422 0.325301205 11.3855422 0 0 0"></polygon>
            <polygon id="Path" points="4.87951807 13.9879518 4.87951807 13.9879518 5.20481928 13.9879518 5.20481928 2.60240964 4.87951807 2.60240964"></polygon>
            <polygon id="Path" points="6.18072289 13.9879518 6.18072289 13.9879518 6.5060241 13.9879518 6.5060241 2.60240964 6.18072289 2.60240964"></polygon>
            <polygon id="Path" points="21.4698795 7.81803982 21.4698795 7.81803982 26.6875293 13.0120482 27 12.6753842 21.8078807 7.48192771"></polygon>
            <polygon id="Path" points="13.9879518 0.340773203 13.9879518 0.340773203 19.2200485 5.53012048 19.5180723 5.19375858 14.3265647 0"></polygon>
            <polygon id="Path" points="20.4939759 8.76998872 20.4939759 8.76998872 25.7218889 13.9879518 26.0240964 13.6502895 20.8460893 8.45783133"></polygon>
            <polygon id="Path" points="13.0120482 1.32132955 13.0120482 1.32132955 18.2396882 6.5060241 18.5421687 6.17051469 13.3095336 0.975903614"></polygon>
            <polygon id="Path" points="20.9764755 6.72346738 20.9764755 6.72346738 20.6367481 7.01821424 20.0510299 7.65143415 19.7215972 7.94564118 13.9879518 13.6591957 14.3179263 13.9879518 20.0510299 8.27439729 20.3414507 7.94564118 20.9764755 7.35668729 21.2717729 7.01821424 27 1.31437666 26.6949497 0.975903614"></polygon>
            <polygon id="Path" points="20.0002809 5.72214625 20.0002809 5.72214625 19.670862 6.05168828 19.0699975 6.67025488 18.7405786 6.96522201 13.0120482 12.6825062 13.302457 13.0120482 19.0699975 7.303948 19.3652826 6.96522201 20.0002809 6.38069008 20.2906897 6.05168828 26.0240964 0.333863895 25.7288113 0"></polygon>
        </g>
    </g>
</svg>