<?xml version="1.0" encoding="UTF-8"?>
<svg width="86px" height="36px" viewBox="0 0 86 36" version="1.1" xmlns="http://www.w3.org/2000/svg" xmlns:xlink="http://www.w3.org/1999/xlink">
    <!-- Generator: Sketch 52.2 (67145) - http://www.bohemiancoding.com/sketch -->
    <title>Artboard</title>
    <desc>Created with Sketch.</desc>
    <defs>
        <path d="M2.142,32 C2.0219994,32 1.962,31.9400006 1.962,31.82 L1.962,19.58 C1.962,19.4599994 2.0219994,19.4 2.142,19.4 L6.264,19.4 C7.36800552,19.4 8.24399676,19.696997 8.892,20.291 C9.54000324,20.885003 9.864,21.6979948 9.864,22.73 L9.864,28.67 C9.864,29.7020052 9.54000324,30.514997 8.892,31.109 C8.24399676,31.703003 7.36800552,32 6.264,32 L2.142,32 Z M2.664,31.298 C2.664,31.3460002 2.68799976,31.37 2.736,31.37 L6.3,31.37 C7.18800444,31.37 7.88699745,31.1240025 8.397,30.632 C8.90700255,30.1399975 9.162,29.4740042 9.162,28.634 L9.162,22.784 C9.162,21.9319957 8.90700255,21.2600025 8.397,20.768 C7.88699745,20.2759975 7.18800444,20.03 6.3,20.03 L2.736,20.03 C2.68799976,20.03 2.664,20.0539998 2.664,20.102 L2.664,31.298 Z M15.948,31.514 C16.5720031,31.514 17.1059978,31.3700014 17.55,31.082 C17.9940022,30.7939986 18.3239989,30.4040025 18.54,29.912 C18.5760002,29.8039995 18.6479995,29.7679998 18.756,29.804 L18.99,29.876 C19.1100006,29.9120002 19.1520002,29.9899994 19.116,30.11 C18.8759988,30.7220031 18.4740028,31.2139981 17.91,31.586 C17.3459972,31.9580019 16.6800038,32.144 15.912,32.144 C15.0959959,32.144 14.4060028,31.9340021 13.842,31.514 C13.2779972,31.0939979 12.8880011,30.5300035 12.672,29.822 C12.5399993,29.3179975 12.474,28.5320053 12.474,27.464 C12.474,26.9119972 12.4829999,26.4710016 12.501,26.141 C12.5190001,25.8109983 12.5579997,25.5140013 12.618,25.25 C12.7980009,24.5179963 13.1789971,23.9300022 13.761,23.486 C14.3430029,23.0419978 15.0539958,22.82 15.894,22.82 C16.7820044,22.82 17.5199971,23.0569976 18.108,23.531 C18.6960029,24.0050024 19.0679992,24.637996 19.224,25.43 C19.2720002,25.6580011 19.3019999,25.9279984 19.314,26.24 C19.3260001,26.5520016 19.332,26.9599975 19.332,27.464 C19.332,27.5960007 19.2720006,27.662 19.152,27.662 L13.248,27.662 C13.1999998,27.662 13.176,27.6859998 13.176,27.734 C13.176,28.1180019 13.1819999,28.4659984 13.194,28.778 C13.2060001,29.0900016 13.2299998,29.3179993 13.266,29.462 C13.3860006,30.0860031 13.6829976,30.5839981 14.157,30.956 C14.6310024,31.3280019 15.2279964,31.514 15.948,31.514 Z M15.894,23.45 C15.1859965,23.45 14.6010023,23.6359981 14.139,24.008 C13.6769977,24.3800019 13.3860006,24.865997 13.266,25.466 C13.2059997,25.8500019 13.176,26.3659968 13.176,27.014 C13.176,27.0620002 13.1999998,27.086 13.248,27.086 L18.558,27.086 C18.6060002,27.086 18.63,27.0620002 18.63,27.014 C18.63,26.2459962 18.6000003,25.7420012 18.54,25.502 C18.4079993,24.8899969 18.1080023,24.3950019 17.64,24.017 C17.1719977,23.6389981 16.5900035,23.45 15.894,23.45 Z M24.408,32 C24.2999995,32 24.2280002,31.9520005 24.192,31.856 L21.204,23.162 L21.186,23.09 C21.186,23.0059996 21.2399995,22.964 21.348,22.964 L21.744,22.964 C21.8520005,22.964 21.9239998,23.0119995 21.96,23.108 L24.552,30.866 C24.5640001,30.8900001 24.5819999,30.902 24.606,30.902 C24.6300001,30.902 24.6479999,30.8900001 24.66,30.866 L27.27,23.108 C27.3060002,23.0119995 27.3779995,22.964 27.486,22.964 L27.882,22.964 C28.0140007,22.964 28.0620002,23.0299993 28.026,23.162 L25.038,31.856 C25.0019998,31.9520005 24.9300005,32 24.822,32 L24.408,32 Z M33.354,31.514 C33.9780031,31.514 34.5119978,31.3700014 34.956,31.082 C35.4000022,30.7939986 35.7299989,30.4040025 35.946,29.912 C35.9820002,29.8039995 36.0539995,29.7679998 36.162,29.804 L36.396,29.876 C36.5160006,29.9120002 36.5580002,29.9899994 36.522,30.11 C36.2819988,30.7220031 35.8800028,31.2139981 35.316,31.586 C34.7519972,31.9580019 34.0860038,32.144 33.318,32.144 C32.5019959,32.144 31.8120028,31.9340021 31.248,31.514 C30.6839972,31.0939979 30.2940011,30.5300035 30.078,29.822 C29.9459993,29.3179975 29.88,28.5320053 29.88,27.464 C29.88,26.9119972 29.8889999,26.4710016 29.907,26.141 C29.9250001,25.8109983 29.9639997,25.5140013 30.024,25.25 C30.2040009,24.5179963 30.5849971,23.9300022 31.167,23.486 C31.7490029,23.0419978 32.4599958,22.82 33.3,22.82 C34.1880044,22.82 34.9259971,23.0569976 35.514,23.531 C36.1020029,24.0050024 36.4739992,24.637996 36.63,25.43 C36.6780002,25.6580011 36.7079999,25.9279984 36.72,26.24 C36.7320001,26.5520016 36.738,26.9599975 36.738,27.464 C36.738,27.5960007 36.6780006,27.662 36.558,27.662 L30.654,27.662 C30.6059998,27.662 30.582,27.6859998 30.582,27.734 C30.582,28.1180019 30.5879999,28.4659984 30.6,28.778 C30.6120001,29.0900016 30.6359998,29.3179993 30.672,29.462 C30.7920006,30.0860031 31.0889976,30.5839981 31.563,30.956 C32.0370024,31.3280019 32.6339964,31.514 33.354,31.514 Z M33.3,23.45 C32.5919965,23.45 32.0070023,23.6359981 31.545,24.008 C31.0829977,24.3800019 30.7920006,24.865997 30.672,25.466 C30.6119997,25.8500019 30.582,26.3659968 30.582,27.014 C30.582,27.0620002 30.6059998,27.086 30.654,27.086 L35.964,27.086 C36.0120002,27.086 36.036,27.0620002 36.036,27.014 C36.036,26.2459962 36.0060003,25.7420012 35.946,25.502 C35.8139993,24.8899969 35.5140023,24.3950019 35.046,24.017 C34.5779977,23.6389981 33.9960035,23.45 33.3,23.45 Z M39.888,32 C39.7679994,32 39.708,31.9400006 39.708,31.82 L39.708,19.58 C39.708,19.4599994 39.7679994,19.4 39.888,19.4 L40.23,19.4 C40.3500006,19.4 40.41,19.4599994 40.41,19.58 L40.41,31.82 C40.41,31.9400006 40.3500006,32 40.23,32 L39.888,32 Z M46.872,32.144 C46.0319958,32.144 45.3240029,31.9250022 44.748,31.487 C44.1719971,31.0489978 43.788001,30.4640037 43.596,29.732 C43.5239996,29.4559986 43.4760001,29.1470017 43.452,28.805 C43.4279999,28.4629983 43.416,28.0160028 43.416,27.464 C43.416,26.8999972 43.4249999,26.4500017 43.443,26.114 C43.4610001,25.7779983 43.5059996,25.4780013 43.578,25.214 C43.770001,24.4939964 44.1599971,23.9150022 44.748,23.477 C45.3360029,23.0389978 46.0439959,22.82 46.872,22.82 C47.7120042,22.82 48.428997,23.0389978 49.023,23.477 C49.617003,23.9150022 49.9979992,24.4939964 50.166,25.214 C50.2260003,25.4780013 50.2649999,25.7719984 50.283,26.096 C50.3010001,26.4200016 50.31,26.8759971 50.31,27.464 C50.31,28.0760031 50.3010001,28.5409984 50.283,28.859 C50.2649999,29.1770016 50.2260003,29.4679987 50.166,29.732 C49.9859991,30.4640037 49.6020029,31.0489978 49.014,31.487 C48.4259971,31.9250022 47.7120042,32.144 46.872,32.144 Z M46.872,31.514 C47.5680035,31.514 48.1499977,31.3250019 48.618,30.947 C49.0860023,30.5689981 49.3859993,30.0740031 49.518,29.462 C49.5540002,29.2819991 49.5779999,29.0090018 49.59,28.643 C49.6020001,28.2769982 49.608,27.890002 49.608,27.482 C49.608,27.0379978 49.6020001,26.6390018 49.59,26.285 C49.5779999,25.9309982 49.5540002,25.6700008 49.518,25.502 C49.3979994,24.8899969 49.0980024,24.3950019 48.618,24.017 C48.1379976,23.6389981 47.5500035,23.45 46.854,23.45 C46.1699966,23.45 45.5940023,23.6389981 45.126,24.017 C44.6579977,24.3950019 44.3580007,24.8899969 44.226,25.502 C44.1539996,25.8140016 44.118,26.473995 44.118,27.482 C44.118,28.5020051 44.1539996,29.1619985 44.226,29.462 C44.3580007,30.0860031 44.6579977,30.5839981 45.126,30.956 C45.5940023,31.3280019 46.1759965,31.514 46.872,31.514 Z M59.958,25.196 C60.0300004,25.4600013 60.0749999,25.7509984 60.093,26.069 C60.1110001,26.3870016 60.12,26.8519969 60.12,27.464 C60.12,28.064003 60.1110001,28.5289983 60.093,28.859 C60.0749999,29.1890017 60.0360003,29.4859987 59.976,29.75 C59.7959991,30.4700036 59.4270028,31.0489978 58.869,31.487 C58.3109972,31.9250022 57.6180041,32.144 56.79,32.144 C56.2379972,32.144 55.7460022,32.0270012 55.314,31.793 C54.8819978,31.5589988 54.5400013,31.238002 54.288,30.83 C54.2639999,30.8059999 54.2430001,30.794 54.225,30.794 C54.2069999,30.794 54.198,30.8119998 54.198,30.848 L54.198,35.384 C54.198,35.5040006 54.1380006,35.564 54.018,35.564 L53.676,35.564 C53.5559994,35.564 53.496,35.5040006 53.496,35.384 L53.496,23.144 C53.496,23.0239994 53.5559994,22.964 53.676,22.964 L54.018,22.964 C54.1380006,22.964 54.198,23.0239994 54.198,23.144 L54.198,24.116 C54.198,24.1520002 54.2069999,24.17 54.225,24.17 C54.2430001,24.17 54.2639999,24.1580001 54.288,24.134 C54.5520013,23.7139979 54.8969979,23.3900011 55.323,23.162 C55.7490021,22.9339989 56.2379972,22.82 56.79,22.82 C57.6060041,22.82 58.2929972,23.0359978 58.851,23.468 C59.4090028,23.9000022 59.7779991,24.4759964 59.958,25.196 Z M59.238,29.624 C59.3100004,29.4079989 59.3579999,29.1680013 59.382,28.904 C59.4060001,28.6399987 59.418,28.1720034 59.418,27.5 C59.418,26.8399967 59.4060001,26.3810013 59.382,26.123 C59.3579999,25.8649987 59.3160003,25.6160012 59.256,25.376 C59.1479995,24.8119972 58.8630023,24.3500018 58.401,23.99 C57.9389977,23.6299982 57.3840032,23.45 56.736,23.45 C56.0879968,23.45 55.5570021,23.6329982 55.143,23.999 C54.7289979,24.3650018 54.4620006,24.8239972 54.342,25.376 C54.2819997,25.580001 54.2430001,25.8079987 54.225,26.06 C54.2069999,26.3120013 54.198,26.7799966 54.198,27.464 C54.198,28.1600035 54.2069999,28.6369987 54.225,28.895 C54.2430001,29.1530013 54.2879996,29.3899989 54.36,29.606 C54.4680005,30.1580028 54.7319979,30.6139982 55.152,30.974 C55.5720021,31.3340018 56.0939969,31.514 56.718,31.514 C57.3540032,31.514 57.8999977,31.3370018 58.356,30.983 C58.8120023,30.6289982 59.1059993,30.1760028 59.238,29.624 Z M66.276,31.514 C66.9000031,31.514 67.4339978,31.3700014 67.878,31.082 C68.3220022,30.7939986 68.6519989,30.4040025 68.868,29.912 C68.9040002,29.8039995 68.9759995,29.7679998 69.084,29.804 L69.318,29.876 C69.4380006,29.9120002 69.4800002,29.9899994 69.444,30.11 C69.2039988,30.7220031 68.8020028,31.2139981 68.238,31.586 C67.6739972,31.9580019 67.0080038,32.144 66.24,32.144 C65.4239959,32.144 64.7340028,31.9340021 64.17,31.514 C63.6059972,31.0939979 63.2160011,30.5300035 63,29.822 C62.8679993,29.3179975 62.802,28.5320053 62.802,27.464 C62.802,26.9119972 62.8109999,26.4710016 62.829,26.141 C62.8470001,25.8109983 62.8859997,25.5140013 62.946,25.25 C63.1260009,24.5179963 63.5069971,23.9300022 64.089,23.486 C64.6710029,23.0419978 65.3819958,22.82 66.222,22.82 C67.1100044,22.82 67.8479971,23.0569976 68.436,23.531 C69.0240029,24.0050024 69.3959992,24.637996 69.552,25.43 C69.6000002,25.6580011 69.6299999,25.9279984 69.642,26.24 C69.6540001,26.5520016 69.66,26.9599975 69.66,27.464 C69.66,27.5960007 69.6000006,27.662 69.48,27.662 L63.576,27.662 C63.5279998,27.662 63.504,27.6859998 63.504,27.734 C63.504,28.1180019 63.5099999,28.4659984 63.522,28.778 C63.5340001,29.0900016 63.5579998,29.3179993 63.594,29.462 C63.7140006,30.0860031 64.0109976,30.5839981 64.485,30.956 C64.9590024,31.3280019 65.5559964,31.514 66.276,31.514 Z M66.222,23.45 C65.5139965,23.45 64.9290023,23.6359981 64.467,24.008 C64.0049977,24.3800019 63.7140006,24.865997 63.594,25.466 C63.5339997,25.8500019 63.504,26.3659968 63.504,27.014 C63.504,27.0620002 63.5279998,27.086 63.576,27.086 L68.886,27.086 C68.9340002,27.086 68.958,27.0620002 68.958,27.014 C68.958,26.2459962 68.9280003,25.7420012 68.868,25.502 C68.7359993,24.8899969 68.4360023,24.3950019 67.968,24.017 C67.4999977,23.6389981 66.9180035,23.45 66.222,23.45 Z M75.852,22.892 C76.2720021,22.892 76.6259986,22.9579993 76.914,23.09 C77.0100005,23.1260002 77.0400002,23.2039994 77.004,23.324 L76.878,23.684 C76.8419998,23.8040006 76.7700005,23.8340003 76.662,23.774 C76.3979987,23.6779995 76.0980017,23.6359999 75.762,23.648 C75.2939977,23.648 74.8740019,23.7739987 74.502,24.026 C74.1299981,24.2780013 73.8390011,24.6139979 73.629,25.034 C73.418999,25.4540021 73.314,25.9159975 73.314,26.42 L73.314,31.82 C73.314,31.9400006 73.2540006,32 73.134,32 L72.792,32 C72.6719994,32 72.612,31.9400006 72.612,31.82 L72.612,23.144 C72.612,23.0239994 72.6719994,22.964 72.792,22.964 L73.134,22.964 C73.2540006,22.964 73.314,23.0239994 73.314,23.144 L73.314,24.494 C73.314,24.5300002 73.3229999,24.551 73.341,24.557 C73.3590001,24.563 73.3739999,24.5480002 73.386,24.512 C73.6380013,24.0079975 73.9739979,23.6120014 74.394,23.324 C74.8140021,23.0359986 75.2999972,22.892 75.852,22.892 Z M81.702,32.072 C81.0779969,32.072 80.5260024,31.970001 80.046,31.766 C79.5659976,31.561999 79.1910014,31.2830018 78.921,30.929 C78.6509987,30.5749982 78.516,30.1880021 78.516,29.768 L78.516,29.516 C78.516,29.3959994 78.5759994,29.336 78.696,29.336 L79.02,29.336 C79.1400006,29.336 79.2,29.3959994 79.2,29.516 L79.2,29.75 C79.2,30.0500015 79.3049989,30.3319987 79.515,30.596 C79.7250011,30.8600013 80.0189981,31.0729992 80.397,31.235 C80.7750019,31.3970008 81.2039976,31.478 81.684,31.478 C82.4040036,31.478 82.9889978,31.3070017 83.439,30.965 C83.8890023,30.6229983 84.114,30.1820027 84.114,29.642 C84.114,29.2699981 84.0000011,28.9700011 83.772,28.742 C83.5439989,28.5139989 83.2830015,28.3430006 82.989,28.229 C82.6949985,28.1149994 82.2180033,27.9500011 81.558,27.734 C80.9099968,27.529999 80.385002,27.3380009 79.983,27.158 C79.580998,26.9779991 79.2450014,26.7320016 78.975,26.42 C78.7049987,26.1079984 78.57,25.7120024 78.57,25.232 C78.57,24.5239965 78.8519972,23.9570021 79.416,23.531 C79.9800028,23.1049979 80.7239954,22.892 81.648,22.892 C82.5840047,22.892 83.3369972,23.1109978 83.907,23.549 C84.4770029,23.9870022 84.762,24.5419966 84.762,25.214 L84.762,25.268 C84.762,25.3880006 84.7020006,25.448 84.582,25.448 L84.276,25.448 C84.1559994,25.448 84.096,25.4060004 84.096,25.322 L84.096,25.214 C84.096,24.7219975 83.8710023,24.3110016 83.421,23.981 C82.9709978,23.6509983 82.3740037,23.486 81.63,23.486 C80.9099964,23.486 80.3340022,23.6449984 79.902,23.963 C79.4699978,24.2810016 79.254,24.6919975 79.254,25.196 C79.254,25.5440017 79.358999,25.8289989 79.569,26.051 C79.7790011,26.2730011 80.0459984,26.4529993 80.37,26.591 C80.6940016,26.7290007 81.1379972,26.8879991 81.702,27.068 C82.4100035,27.2840011 82.961998,27.4729992 83.358,27.635 C83.754002,27.7970008 84.0959986,28.0369984 84.384,28.355 C84.6720014,28.6730016 84.816,29.0899974 84.816,29.606 C84.816,30.3380037 84.5310028,30.9319977 83.961,31.388 C83.3909972,31.8440023 82.6380047,32.072 81.702,32.072 Z" id="path-1"></path>
    </defs>
    <g id="Artboard" stroke="none" stroke-width="1" fill="none" fill-rule="evenodd">
        <g id="logo">
            <g transform="translate(1.000000, 0.000000)">
                <path d="M5.04173355,0.844836811 C7.99732477,0.844836811 9.60192616,2.19689674 9.60192616,4.90208668 L9.60192616,5.00909577 L8.73301231,5.00909577 L8.73301231,4.90208668 C8.73301231,2.74210808 7.45478866,1.6035313 5.0411985,1.6035313 C2.59229535,1.60299625 1.36169074,2.63028357 1.36169074,4.38148743 C1.36169074,5.87961477 2.26698769,6.76029963 3.79935795,7.05243446 L6.53772071,7.55805243 C8.55270198,7.96682718 9.74799358,9.0176565 9.74799358,11.0026752 C9.74799358,13.4740503 7.99892991,14.7196362 5.00695559,14.7196362 C2.01498127,14.7196362 0.265382558,13.3670412 0.265382558,10.6618513 L0.265382558,10.5917603 L1.13269128,10.5917603 L1.13269128,10.6645265 C1.13269128,12.8635634 2.5564473,13.9630819 5.00535045,13.9630819 C7.45425361,13.9630819 8.80417335,12.9705725 8.80417335,11.0395934 C8.80417335,9.54146602 7.8871054,8.69448903 6.35473515,8.40716961 L3.61797753,7.85981808 C1.65168539,7.48528625 0.407704655,6.40021402 0.407704655,4.42054575 C0.408774746,2.12413055 2.04975923,0.844836811 5.04173355,0.844836811 Z" id="Path" fill="#FFFFFF"></path>
                <path d="M16.2129481,4.59925094 C18.5778491,4.59925094 20.1214553,5.80577849 20.1214553,8.15088283 L20.1214553,11.1803103 C20.1214553,13.5446763 18.5778491,14.717496 16.2129481,14.717496 C13.8726592,14.7196362 12.3039058,13.5468165 12.3039058,11.1803103 L12.3039058,8.15195292 C12.3039058,5.80684858 13.8726592,4.59925094 16.2129481,4.59925094 Z M16.2129481,5.33386838 C14.3937935,5.33386838 13.1845907,6.23863028 13.1845907,8.11182451 L13.1845907,11.2546816 C13.1845907,13.0786517 14.3916533,13.9935795 16.2129481,13.9935795 C18.0342429,13.9935795 19.2776886,13.0786517 19.2776886,11.2546816 L19.2776886,8.1128946 C19.2776886,6.23970037 18.034778,5.33493847 16.2129481,5.33493847 L16.2129481,5.33386838 Z" id="Shape" fill="#FFFFFF" fill-rule="nonzero"></path>
                <path d="M26.8640984,4.59925094 C29.2065276,4.59925094 30.5917603,5.87854468 30.5917603,8.15088283 L30.5917603,11.1803103 C30.5917603,13.4719101 29.2065276,14.717496 26.8640984,14.717496 C25.4060995,14.717496 24.2739433,14.2455859 23.6565008,13.2921348 L23.6565008,18.4146602 L22.7758159,18.4146602 L22.7758159,4.79507758 L23.4767255,4.79507758 L23.5837346,6.1717496 C24.2011771,5.15516319 25.3675762,4.59925094 26.8640984,4.59925094 Z M26.7570894,5.33386838 C24.7549492,5.33386838 23.6565008,6.50615302 23.6565008,8.25789192 L23.6565008,11.1086142 C23.6565008,12.8207598 24.7549492,13.9935795 26.7570894,13.9935795 C28.5794543,13.9935795 29.753344,13.0058855 29.753344,11.2546816 L29.753344,8.1128946 C29.7506688,6.36169074 28.5794543,5.33493847 26.7570894,5.33493847 L26.7570894,5.33386838 Z" id="Shape" fill="#FFFFFF" fill-rule="nonzero"></path>
                <path d="M33.2594971,0.265382558 L34.129481,0.265382558 L34.129481,6.02568218 C34.7902622,5.08079187 35.9127876,4.59925094 37.3370787,4.59925094 C39.6377742,4.59925094 41.0642055,5.65971108 41.0642055,8.00481541 L41.0642055,14.5393258 L40.2188336,14.5393258 L40.2188336,7.96682718 C40.2188336,6.13269128 39.0620653,5.33493847 37.2300696,5.33493847 C35.4077047,5.33493847 34.1268058,6.28838951 34.1268058,8.1128946 L34.1268058,14.5393258 L33.2594971,14.5393258 L33.2594971,0.265382558 Z" id="Path" fill="#FFFFFF"></path>
                <path d="M43.9464955,14.5393258 L44.9708857,14.5393258 L44.9708857,4.79507758 L43.9464955,4.79507758 L43.9464955,14.5393258 Z M43.9464955,2.63028357 L44.9708857,2.63028357 L44.9708857,0.771535581 L43.9464955,0.771535581 L43.9464955,2.63028357 Z" id="Shape" fill="#FFFFFF" fill-rule="nonzero"></path>
                <path d="M51.211343,4.59925094 C53.4810059,4.59925094 54.9031568,5.6987694 54.9031568,7.93204922 L54.9031568,14.5393258 L54.2033173,14.5393258 L54.1300161,13.3670412 C53.4788657,14.2862493 52.3076512,14.7196362 50.776886,14.7196362 C48.4686998,14.7196362 47.0850722,13.8485821 47.0850722,11.8346709 C47.0850722,9.86409845 48.470305,8.94970572 50.776886,8.94970572 C52.234885,8.94970572 53.4060995,9.35848047 54.0181915,10.1562333 L54.0181915,7.8988764 C54.0181915,6.13322632 52.9202782,5.30069556 51.2092028,5.30069556 C49.4210808,5.30069556 48.4344569,5.98662386 48.4344569,7.63135367 L47.5666132,7.63135367 C47.5666132,5.52006421 48.9079722,4.59925094 51.211343,4.59925094 Z M50.9202782,9.64901017 C49.0973783,9.64901017 47.9315142,10.3012306 47.9315142,11.8336009 C47.9315142,13.3659711 49.0973783,13.9935795 50.9202782,13.9935795 C52.7431782,13.9935795 54.0203317,13.2199037 54.0203317,11.8336009 C54.0203317,10.447298 52.7426431,9.65008026 50.9202782,9.65008026 L50.9202782,9.64901017 Z" id="Shape" fill="#FFFFFF" fill-rule="nonzero"></path>
                <polygon id="Path" fill="#00A690" points="57.4858213 2.48421616 57.4858213 2.48421616 68.6195827 2.48421616 68.6195827 2.05136437 57.4858213 2.05136437"></polygon>
                <polygon id="Path" fill="#00A690" points="57.4858213 1.20438737 57.4858213 1.20438737 68.6195827 1.20438737 68.6195827 0.733012306 57.4858213 0.733012306"></polygon>
                <polygon id="Path" fill="#00A690" points="62.199572 14.5393258 62.199572 14.5393258 62.6367041 14.5393258 62.6367041 3.40342429 62.199572 3.40342429"></polygon>
                <polygon id="Path" fill="#00A690" points="63.482611 14.5393258 63.482611 14.5393258 63.9491707 14.5393258 63.9491707 3.40342429 63.482611 3.40342429"></polygon>
                <polygon id="Path" fill="#00A690" points="78.6206528 8.58480471 78.6206528 8.58480471 83.6506153 13.6201177 83.9518459 13.29374 78.9464955 8.25896201"></polygon>
                <polygon id="Path" fill="#00A690" points="71.1027287 1.06367041 71.1027287 1.06367041 76.1375067 6.09898341 76.4242911 5.77260567 71.4285714 0.733012306"></polygon>
                <polygon id="Path" fill="#00A690" points="77.7025147 9.50401284 77.7025147 9.50401284 82.7469235 14.5393258 83.0385233 14.2134831 78.0422686 9.20278224"></polygon>
                <polygon id="Path" fill="#00A690" points="70.1888711 1.97806314 70.1888711 1.97806314 75.2284644 7.01337614 75.5200642 6.68753344 70.4756554 1.64258962"></polygon>
                <polygon id="Path" fill="#00A690" points="78.0037453 7.33921883 78.0037453 7.33921883 77.6682718 7.63135367 77.0898876 8.25896201 76.76458 8.5505618 71.1027287 14.2134831 71.4285714 14.5393258 77.0898876 8.87640449 77.376672 8.5505618 78.0037453 7.96682718 78.2953451 7.63135367 83.9518459 1.97806314 83.6506153 1.64258962"></polygon>
                <polygon id="Path" fill="#00A690" points="77.0898876 6.40021402 77.0898876 6.40021402 76.76458 6.72659176 76.1712146 7.33921883 75.8459069 7.63135367 70.1888711 13.29374 70.4756554 13.6201177 76.1712146 7.96682718 76.4628143 7.63135367 77.0898876 7.05243446 77.376672 6.72659176 83.0385233 1.06367041 82.7469235 0.733012306"></polygon>
            </g>
            <g id="Developers">
                <use fill="#000000" xlink:href="#path-1"></use>
                <use fill="#FFFFFF" xlink:href="#path-1"></use>
            </g>
        </g>
    </g>
</svg>