<?xml version="1.0" encoding="UTF-8"?>
<svg width="484px" height="488px" viewBox="0 0 484 488" version="1.1" xmlns="http://www.w3.org/2000/svg" xmlns:xlink="http://www.w3.org/1999/xlink">
    <!-- Generator: Sketch 52.2 (67145) - http://www.bohemiancoding.com/sketch -->
    <title>Artboard</title>
    <desc>Created with Sketch.</desc>
    <g id="Artboard" stroke="none" stroke-width="1" fill="none" fill-rule="evenodd">
        <path d="M441.292706,438.195312 C443.226497,440.403657 444.124315,442.957017 443.986187,445.855469 C443.848059,448.753921 442.673989,451.169261 440.463943,453.101562 C439.635175,454.205735 438.599231,454.964842 437.35608,455.378906 C436.112929,455.792971 434.800733,456 433.419454,456 C432.038175,456 430.656916,455.723961 429.275637,455.171875 C427.894358,454.619789 426.651225,453.791672 425.546202,452.6875 L299.57417,315.21875 C285.485123,326.536515 269.945965,335.162731 252.956231,341.097656 C235.966497,347.032582 218.355452,350 200.122566,350 C178.850867,350 158.546368,345.997436 139.208459,337.992188 C119.87055,329.986939 102.60482,318.531325 87.4107485,303.625 C72.4929333,288.442632 61.0284881,271.190201 53.0170688,251.867188 C45.0056495,232.544174 41,212.255315 41,191 C41,169.744685 45.0056495,149.455826 53.0170688,130.132812 C61.0284881,110.809799 72.4929333,93.695387 87.4107485,78.7890625 C102.60482,63.6066949 119.87055,52.0130609 139.208459,44.0078125 C158.546368,36.0025641 178.850867,32 200.122566,32 C221.394266,32 241.698765,36.0025641 261.036674,44.0078125 C280.374582,52.0130609 297.640313,63.6066949 312.834384,78.7890625 C327.752199,93.695387 339.216645,110.809799 347.228064,130.132812 C355.239483,149.455826 359.245133,169.744685 359.245133,191 C359.245133,211.703229 355.446672,231.50902 347.849637,250.417969 C340.252601,269.326917 329.409722,286.096281 315.320674,300.726562 L441.292706,438.195312 Z M62,191 C62,210.063158 65.6606241,227.951868 72.981982,244.666667 C80.3033399,261.381465 90.180118,276.023961 102.612613,288.594595 C115.045107,301.165228 129.618535,311.042006 146.333333,318.225225 C163.048132,325.408444 180.936842,329 200,329 C219.063158,329 236.951868,325.408444 253.666667,318.225225 C270.381465,311.042006 284.954893,301.165228 297.387387,288.594595 C309.819882,276.023961 319.69666,261.381465 327.018018,244.666667 C334.339376,227.951868 338,210.063158 338,191 C338,171.936842 334.339376,154.048132 327.018018,137.333333 C319.69666,120.618535 309.819882,106.045107 297.387387,93.6126126 C284.954893,81.180118 270.381465,71.3033399 253.666667,63.981982 C236.951868,56.6606241 219.063158,53 200,53 C180.936842,53 163.048132,56.6606241 146.333333,63.981982 C129.618535,71.3033399 115.045107,81.180118 102.612613,93.6126126 C90.180118,106.045107 80.3033399,120.618535 72.981982,137.333333 C65.6606241,154.048132 62,171.936842 62,191 Z" id="" fill="#00A690"></path>
    </g>
</svg>