<?xml version="1.0" encoding="UTF-8"?>
<svg width="87px" height="29px" viewBox="0 0 87 29" version="1.1" xmlns="http://www.w3.org/2000/svg" xmlns:xlink="http://www.w3.org/1999/xlink">
    <!-- Generator: Sketch 52.2 (67145) - http://www.bohemiancoding.com/sketch -->
    <title>Artboard</title>
    <desc>Created with Sketch.</desc>
    <g id="Artboard" stroke="none" stroke-width="1" fill="none" fill-rule="evenodd">
        <g id="SophiaTX-Wordmark-logo-inverted-primary" transform="translate(2.000000, 6.000000)">
            <path d="M5.04173355,0.844836811 C7.99732477,0.844836811 9.60192616,2.19689674 9.60192616,4.90208668 L9.60192616,5.00909577 L8.73301231,5.00909577 L8.73301231,4.90208668 C8.73301231,2.74210808 7.45478866,1.6035313 5.0411985,1.6035313 C2.59229535,1.60299625 1.36169074,2.63028357 1.36169074,4.38148743 C1.36169074,5.87961477 2.26698769,6.76029963 3.79935795,7.05243446 L6.53772071,7.55805243 C8.55270198,7.96682718 9.74799358,9.0176565 9.74799358,11.0026752 C9.74799358,13.4740503 7.99892991,14.7196362 5.00695559,14.7196362 C2.01498127,14.7196362 0.265382558,13.3670412 0.265382558,10.6618513 L0.265382558,10.5917603 L1.13269128,10.5917603 L1.13269128,10.6645265 C1.13269128,12.8635634 2.5564473,13.9630819 5.00535045,13.9630819 C7.45425361,13.9630819 8.80417335,12.9705725 8.80417335,11.0395934 C8.80417335,9.54146602 7.8871054,8.69448903 6.35473515,8.40716961 L3.61797753,7.85981808 C1.65168539,7.48528625 0.407704655,6.40021402 0.407704655,4.42054575 C0.408774746,2.12413055 2.04975923,0.844836811 5.04173355,0.844836811 Z" id="Path" fill="#FFFFFF"></path>
            <path d="M16.2129481,4.59925094 C18.5778491,4.59925094 20.1214553,5.80577849 20.1214553,8.15088283 L20.1214553,11.1803103 C20.1214553,13.5446763 18.5778491,14.717496 16.2129481,14.717496 C13.8726592,14.7196362 12.3039058,13.5468165 12.3039058,11.1803103 L12.3039058,8.15195292 C12.3039058,5.80684858 13.8726592,4.59925094 16.2129481,4.59925094 Z M16.2129481,5.33386838 C14.3937935,5.33386838 13.1845907,6.23863028 13.1845907,8.11182451 L13.1845907,11.2546816 C13.1845907,13.0786517 14.3916533,13.9935795 16.2129481,13.9935795 C18.0342429,13.9935795 19.2776886,13.0786517 19.2776886,11.2546816 L19.2776886,8.1128946 C19.2776886,6.23970037 18.034778,5.33493847 16.2129481,5.33493847 L16.2129481,5.33386838 Z" id="Shape" fill="#FFFFFF"></path>
            <path d="M26.8640984,4.59925094 C29.2065276,4.59925094 30.5917603,5.87854468 30.5917603,8.15088283 L30.5917603,11.1803103 C30.5917603,13.4719101 29.2065276,14.717496 26.8640984,14.717496 C25.4060995,14.717496 24.2739433,14.2455859 23.6565008,13.2921348 L23.6565008,18.4146602 L22.7758159,18.4146602 L22.7758159,4.79507758 L23.4767255,4.79507758 L23.5837346,6.1717496 C24.2011771,5.15516319 25.3675762,4.59925094 26.8640984,4.59925094 Z M26.7570894,5.33386838 C24.7549492,5.33386838 23.6565008,6.50615302 23.6565008,8.25789192 L23.6565008,11.1086142 C23.6565008,12.8207598 24.7549492,13.9935795 26.7570894,13.9935795 C28.5794543,13.9935795 29.753344,13.0058855 29.753344,11.2546816 L29.753344,8.1128946 C29.7506688,6.36169074 28.5794543,5.33493847 26.7570894,5.33493847 L26.7570894,5.33386838 Z" id="Shape" fill="#FFFFFF"></path>
            <path d="M33.2594971,0.265382558 L34.129481,0.265382558 L34.129481,6.02568218 C34.7902622,5.08079187 35.9127876,4.59925094 37.3370787,4.59925094 C39.6377742,4.59925094 41.0642055,5.65971108 41.0642055,8.00481541 L41.0642055,14.5393258 L40.2188336,14.5393258 L40.2188336,7.96682718 C40.2188336,6.13269128 39.0620653,5.33493847 37.2300696,5.33493847 C35.4077047,5.33493847 34.1268058,6.28838951 34.1268058,8.1128946 L34.1268058,14.5393258 L33.2594971,14.5393258 L33.2594971,0.265382558 Z" id="Path" fill="#FFFFFF"></path>
            <path d="M43.9464955,14.5393258 L44.9708857,14.5393258 L44.9708857,4.79507758 L43.9464955,4.79507758 L43.9464955,14.5393258 Z M43.9464955,2.63028357 L44.9708857,2.63028357 L44.9708857,0.771535581 L43.9464955,0.771535581 L43.9464955,2.63028357 Z" id="Shape" fill="#FFFFFF" fill-rule="nonzero"></path>
            <path d="M51.211343,4.59925094 C53.4810059,4.59925094 54.9031568,5.6987694 54.9031568,7.93204922 L54.9031568,14.5393258 L54.2033173,14.5393258 L54.1300161,13.3670412 C53.4788657,14.2862493 52.3076512,14.7196362 50.776886,14.7196362 C48.4686998,14.7196362 47.0850722,13.8485821 47.0850722,11.8346709 C47.0850722,9.86409845 48.470305,8.94970572 50.776886,8.94970572 C52.234885,8.94970572 53.4060995,9.35848047 54.0181915,10.1562333 L54.0181915,7.8988764 C54.0181915,6.13322632 52.9202782,5.30069556 51.2092028,5.30069556 C49.4210808,5.30069556 48.4344569,5.98662386 48.4344569,7.63135367 L47.5666132,7.63135367 C47.5666132,5.52006421 48.9079722,4.59925094 51.211343,4.59925094 Z M50.9202782,9.64901017 C49.0973783,9.64901017 47.9315142,10.3012306 47.9315142,11.8336009 C47.9315142,13.3659711 49.0973783,13.9935795 50.9202782,13.9935795 C52.7431782,13.9935795 54.0203317,13.2199037 54.0203317,11.8336009 C54.0203317,10.447298 52.7426431,9.65008026 50.9202782,9.65008026 L50.9202782,9.64901017 Z" id="Shape" fill="#FFFFFF"></path>
            <polygon id="Path" fill="#00A690" points="57.4858213 2.48421616 57.4858213 2.48421616 68.6195827 2.48421616 68.6195827 2.05136437 57.4858213 2.05136437"></polygon>
            <polygon id="Path" fill="#00A690" points="57.4858213 1.20438737 57.4858213 1.20438737 68.6195827 1.20438737 68.6195827 0.733012306 57.4858213 0.733012306"></polygon>
            <polygon id="Path" fill="#00A690" points="62.199572 14.5393258 62.199572 14.5393258 62.6367041 14.5393258 62.6367041 3.40342429 62.199572 3.40342429"></polygon>
            <polygon id="Path" fill="#00A690" points="63.482611 14.5393258 63.482611 14.5393258 63.9491707 14.5393258 63.9491707 3.40342429 63.482611 3.40342429"></polygon>
            <polygon id="Path" fill="#00A690" points="78.6206528 8.58480471 78.6206528 8.58480471 83.6506153 13.6201177 83.9518459 13.29374 78.9464955 8.25896201"></polygon>
            <polygon id="Path" fill="#00A690" points="71.1027287 1.06367041 71.1027287 1.06367041 76.1375067 6.09898341 76.4242911 5.77260567 71.4285714 0.733012306"></polygon>
            <polygon id="Path" fill="#00A690" points="77.7025147 9.50401284 77.7025147 9.50401284 82.7469235 14.5393258 83.0385233 14.2134831 78.0422686 9.20278224"></polygon>
            <polygon id="Path" fill="#00A690" points="70.1888711 1.97806314 70.1888711 1.97806314 75.2284644 7.01337614 75.5200642 6.68753344 70.4756554 1.64258962"></polygon>
            <polygon id="Path" fill="#00A690" points="78.0037453 7.33921883 78.0037453 7.33921883 77.6682718 7.63135367 77.0898876 8.25896201 76.76458 8.5505618 71.1027287 14.2134831 71.4285714 14.5393258 77.0898876 8.87640449 77.376672 8.5505618 78.0037453 7.96682718 78.2953451 7.63135367 83.9518459 1.97806314 83.6506153 1.64258962"></polygon>
            <polygon id="Path" fill="#00A690" points="77.0898876 6.40021402 77.0898876 6.40021402 76.76458 6.72659176 76.1712146 7.33921883 75.8459069 7.63135367 70.1888711 13.29374 70.4756554 13.6201177 76.1712146 7.96682718 76.4628143 7.63135367 77.0898876 7.05243446 77.376672 6.72659176 83.0385233 1.06367041 82.7469235 0.733012306"></polygon>
        </g>
    </g>
</svg>